<?xml version="1.0" standalone="no"?>
<!DOCTYPE svg PUBLIC "-//W3C//DTD SVG 20010904//EN"
 "http://www.w3.org/TR/2001/REC-SVG-20010904/DTD/svg10.dtd">
<svg version="1.0" xmlns="http://www.w3.org/2000/svg"
 width="700.000000pt" height="700.000000pt" viewBox="0 0 700.000000 700.000000"
 preserveAspectRatio="xMidYMid meet">
<metadata>
Created by potrace 1.14, written by Peter Selinger 2001-2017
</metadata>
<g transform="translate(0.000000,700.000000) scale(0.100000,-0.100000)"
fill="#000000" stroke="none">
<path d="M5539 6342 c-1 -4 -2 -32 -4 -62 -8 -138 -16 -269 -20 -310 -15 -141
-22 -200 -36 -295 -18 -121 -20 -130 -24 -145 -2 -8 -6 -31 -9 -50 -3 -20 -19
-99 -36 -175 -96 -440 -249 -875 -445 -1265 -75 -150 -80 -160 -172 -321 l-55
-97 -32 10 c-60 18 -91 27 -116 32 -29 6 -64 13 -100 21 -22 5 -35 32 -119
248 -112 286 -121 306 -167 357 -58 64 -132 100 -236 115 -21 3 -55 7 -75 10
-21 3 -49 7 -63 9 -14 2 -46 7 -71 10 -25 4 -57 9 -70 11 -13 2 -60 9 -104 15
-44 6 -91 13 -105 16 -61 10 -126 18 -132 16 -10 -3 -10 3 2 69 5 30 12 70 15
89 3 19 7 46 10 60 2 14 7 45 10 70 3 25 10 70 15 100 5 30 11 73 15 95 3 22
7 51 10 65 3 14 7 39 10 55 6 45 14 100 31 195 7 47 14 88 14 92 0 3 24 10 53
14 69 10 72 10 147 18 35 4 68 10 72 12 17 11 207 3 253 -10 28 -7 130 -46
228 -85 97 -39 186 -71 196 -71 34 0 60 34 95 124 49 129 48 129 -109 197
-124 54 -378 150 -418 160 -29 6 -94 10 -145 8 l-92 -4 7 30 c4 17 7 59 6 95
-4 207 -206 361 -412 315 -93 -20 -186 -97 -232 -193 -33 -68 -34 -208 -1
-271 12 -25 22 -48 22 -52 0 -4 -15 -11 -32 -14 -18 -4 -126 -36 -240 -71
-114 -35 -209 -64 -211 -64 -3 0 10 58 28 129 43 170 41 173 -111 211 l-94 24
-27 -20 c-15 -11 -31 -34 -35 -50 -50 -181 -118 -462 -118 -485 0 -88 91 -179
179 -179 15 0 87 18 161 41 74 23 143 43 153 46 19 6 20 3 8 -52 -5 -22 -12
-56 -15 -76 -3 -20 -8 -42 -10 -50 -3 -8 -8 -25 -11 -39 -3 -14 -17 -79 -31
-145 -18 -83 -26 -151 -26 -220 -1 -166 38 -263 153 -377 54 -53 89 -77 171
-117 105 -51 178 -71 328 -91 47 -7 101 -14 120 -17 19 -2 51 -6 70 -8 44 -3
155 -15 195 -20 17 -2 57 -7 90 -10 33 -4 62 -9 64 -11 4 -4 119 -288 117
-291 -1 0 -35 -4 -76 -7 -42 -4 -87 -8 -100 -11 -14 -2 -47 -6 -75 -10 -58 -7
-267 -53 -301 -66 -28 -10 -23 -18 -93 157 l-52 132 -67 22 c-251 83 -438 222
-520 387 -35 69 -51 117 -54 160 -1 17 -6 29 -10 27 -10 -6 -2 -213 10 -284
30 -161 119 -357 220 -480 122 -149 148 -189 146 -225 0 -11 -2 -29 -3 -40 -1
-14 -27 -36 -88 -71 -162 -95 -322 -227 -431 -357 -49 -58 -44 -69 56 -120
327 -169 669 -220 1152 -172 93 9 338 87 442 141 52 27 49 23 -82 -120 -161
-176 -393 -397 -546 -522 -38 -31 -79 -64 -92 -75 -182 -154 -545 -394 -828
-546 -148 -80 -224 -117 -439 -213 -72 -32 -336 -131 -444 -167 -226 -74 -528
-150 -751 -189 -19 -3 -42 -7 -50 -9 -8 -2 -43 -6 -78 -10 -35 -4 -60 -11 -55
-16 8 -7 126 -42 203 -59 88 -19 278 -59 310 -64 19 -3 46 -8 60 -10 14 -2 47
-7 73 -11 27 -4 56 -8 65 -10 10 -1 46 -6 82 -9 36 -4 75 -8 87 -10 60 -12
277 -21 513 -21 266 0 442 9 595 29 22 3 63 8 90 11 28 4 75 10 105 15 30 5
73 12 95 16 22 3 92 17 155 30 63 14 125 27 136 29 109 23 232 59 434 126 842
279 1561 792 2036 1451 137 191 286 467 371 688 56 145 123 377 138 481 4 24
8 46 10 49 2 4 7 26 10 51 3 24 8 60 11 79 25 181 25 575 0 730 -3 14 -10 59
-16 100 -10 64 -20 111 -46 223 -76 326 -265 728 -490 1040 -37 50 -192 247
-203 257 -3 3 -27 28 -53 57 -27 29 -48 49 -49 45z m153 -302 c24 -30 51 -64
61 -75 21 -23 197 -283 197 -290 0 -3 12 -24 26 -47 111 -176 231 -481 268
-679 2 -13 16 -89 31 -169 33 -179 37 -283 13 -425 -10 -61 -20 -114 -22 -120
-1 -5 -9 -38 -16 -73 -17 -85 -19 -83 -35 63 -33 308 -200 867 -460 1540 -25
66 -50 129 -55 140 -13 29 -58 138 -81 198 l-20 52 25 -30 c14 -16 45 -55 68
-85z"/>
</g>
</svg>
