<?xml version="1.0" standalone="no"?>
<!DOCTYPE svg PUBLIC "-//W3C//DTD SVG 20010904//EN"
 "http://www.w3.org/TR/2001/REC-SVG-20010904/DTD/svg10.dtd">
<svg version="1.0" xmlns="http://www.w3.org/2000/svg"
 width="600.000000pt" height="600.000000pt" viewBox="0 0 600.000000 600.000000"
 preserveAspectRatio="xMidYMid meet">
<metadata>
Created by potrace 1.14, written by Peter Selinger 2001-2017
</metadata>
<g transform="translate(0.000000,600.000000) scale(0.100000,-0.100000)"
fill="#000000" stroke="none">
<path d="M2755 5376 c-22 -33 -49 -72 -60 -85 -45 -55 -149 -176 -155 -181
-21 -18 -204 -236 -227 -271 -15 -23 -31 -47 -35 -53 -69 -100 -162 -350 -150
-398 6 -23 -19 -2 -48 40 -53 76 -192 207 -261 245 -75 42 -193 82 -264 91
-49 6 -146 11 -390 21 -152 6 -193 11 -312 42 -60 15 -62 15 -92 -6 -25 -18
-31 -30 -31 -58 0 -52 38 -96 116 -133 63 -30 278 -116 319 -127 21 -6 225
-90 305 -125 152 -68 445 -227 423 -229 -7 -1 -16 -2 -20 -3 -5 -1 -30 -5 -58
-10 -185 -29 -382 -128 -528 -265 -159 -150 -283 -354 -332 -548 -31 -124 -27
-153 27 -173 33 -11 34 -11 83 47 88 103 231 237 287 271 30 17 117 59 194 93
198 86 320 149 435 224 55 36 101 65 102 65 1 0 -93 -190 -208 -422 -340 -683
-560 -1158 -717 -1548 -72 -178 -161 -451 -174 -530 -2 -14 -7 -41 -10 -60 -3
-19 -8 -77 -10 -129 -2 -52 -7 -98 -11 -102 -4 -4 -44 -18 -88 -32 -173 -55
-503 -187 -700 -282 -60 -29 -118 -56 -127 -59 -48 -15 1 -80 61 -82 36 -1
323 -11 536 -19 655 -24 995 -27 4150 -38 452 -2 756 4 901 17 22 2 85 7 140
11 54 4 106 9 114 11 8 1 17 3 20 3 3 1 5 18 5 38 l0 36 -160 81 c-178 90
-288 141 -478 218 l-129 53 -3 125 c-2 69 -5 134 -8 145 -3 11 -8 34 -12 50
-98 414 -464 756 -971 906 -38 11 -85 23 -104 25 -19 3 -48 9 -65 14 -27 8
-62 13 -190 26 -58 5 -282 5 -335 -1 -524 -60 -925 -281 -1168 -641 -49 -73
-117 -220 -127 -274 -9 -48 -14 -51 -120 -65 -56 -8 -106 -15 -133 -21 -19 -4
-26 4 -46 48 -44 98 -53 131 -70 263 -12 96 -13 245 -2 360 9 90 53 354 71
425 8 30 16 66 18 80 20 111 167 574 258 815 92 240 242 605 250 605 5 0 30
-22 56 -48 57 -57 101 -137 176 -322 83 -205 144 -311 241 -417 94 -102 248
-203 399 -258 l48 -18 32 31 31 31 -31 63 c-17 35 -42 88 -56 118 -26 58 -29
65 -124 335 -79 224 -109 297 -151 370 -71 123 -155 208 -255 260 -38 19 -63
37 -55 39 7 3 69 23 138 46 322 106 631 316 831 567 l50 62 -23 35 c-13 20
-28 36 -35 36 -6 0 -60 -11 -120 -25 -541 -127 -792 -211 -950 -318 l-51 -35
72 92 c92 117 126 166 166 246 94 187 114 352 68 568 -13 60 -20 67 -68 75
-34 5 -37 3 -75 -57z"/>
</g>
</svg>
