<?xml version="1.0" standalone="no"?>
<!DOCTYPE svg PUBLIC "-//W3C//DTD SVG 20010904//EN"
 "http://www.w3.org/TR/2001/REC-SVG-20010904/DTD/svg10.dtd">
<svg version="1.0" xmlns="http://www.w3.org/2000/svg"
 width="720.000000pt" height="720.000000pt" viewBox="0 0 720.000000 720.000000"
 preserveAspectRatio="xMidYMid meet">
<metadata>
Created by potrace 1.14, written by Peter Selinger 2001-2017
</metadata>
<g transform="translate(0.000000,720.000000) scale(0.100000,-0.100000)"
fill="#000000" stroke="none">
<path d="M889 7182 c-60 -65 -133 -235 -143 -337 -2 -28 -7 -75 -11 -105 -3
-30 -8 -138 -9 -240 -6 -292 -4 -270 -25 -270 -24 0 -126 79 -171 133 -49 58
-62 108 -47 180 2 9 20 39 40 66 55 72 47 115 -14 73 -95 -63 -124 -112 -123
-208 1 -107 38 -176 152 -284 87 -83 114 -100 307 -197 157 -80 349 -244 410
-352 24 -44 35 -77 40 -129 7 -76 -1 -152 -16 -152 -6 0 -29 8 -52 19 -23 10
-91 40 -152 66 -60 26 -155 71 -210 100 -119 63 -167 75 -195 50 -12 -11 -20
-31 -20 -49 0 -111 114 -349 210 -440 69 -64 164 -116 213 -116 19 0 36 -3 40
-6 11 -12 -20 -77 -44 -91 l-24 -14 27 4 c23 3 26 1 23 -22 -1 -14 1 -33 6
-42 5 -11 -18 -48 -83 -135 -120 -158 -130 -169 -188 -215 -31 -24 -50 -47
-50 -60 0 -11 -16 -36 -35 -56 -39 -40 -42 -54 -20 -106 8 -20 15 -47 15 -60
0 -30 30 -58 103 -96 87 -46 132 -44 237 9 120 61 222 89 287 80 55 -7 68 -6
96 5 10 4 17 4 16 -1 -1 -5 0 -13 1 -19 3 -12 4 -18 14 -78 6 -33 46 -116 121
-253 104 -187 143 -243 252 -364 17 -19 48 -60 69 -90 96 -141 206 -262 290
-320 38 -27 42 -35 59 -107 10 -43 22 -86 27 -96 25 -49 156 -218 202 -262 32
-29 67 -75 84 -110 35 -70 63 -97 152 -143 87 -46 78 -35 95 -122 3 -14 7 -35
9 -47 19 -93 18 -107 -16 -145 -128 -144 -215 -267 -224 -315 -3 -15 -7 -30
-9 -33 -2 -4 -7 -22 -10 -41 -3 -18 -8 -35 -10 -37 -2 -2 5 -26 15 -53 19 -48
21 -140 6 -314 -3 -27 -7 -93 -11 -145 -3 -52 -8 -111 -10 -130 -2 -19 -7 -75
-10 -125 -4 -49 -13 -116 -21 -148 -22 -87 -20 -117 9 -165 15 -23 27 -46 27
-51 0 -5 4 -11 8 -13 5 -1 26 -34 46 -71 23 -40 73 -103 122 -153 46 -47 82
-89 79 -93 -2 -4 -7 -23 -10 -42 -3 -19 -8 -42 -11 -51 -3 -10 -2 -18 3 -18 4
0 47 -7 95 -15 65 -12 98 -13 132 -5 26 6 63 13 84 15 88 13 96 22 101 117 2
35 -3 54 -19 75 -23 31 -30 84 -32 233 -2 114 12 342 27 440 2 19 7 58 10 85
18 159 24 201 41 293 8 46 17 129 20 185 9 211 13 246 29 277 10 18 15 48 13
70 l-3 39 122 90 c87 65 137 95 178 106 31 9 73 31 93 48 56 49 71 61 123 100
l36 27 509 4 509 3 145 31 c207 45 200 46 284 -41 39 -41 121 -117 181 -169
l110 -96 38 -108 c101 -287 107 -322 82 -434 -6 -26 -6 -217 0 -310 4 -56 0
-73 -141 -565 -25 -88 -48 -171 -50 -185 -3 -14 -19 -38 -37 -53 -56 -49 -87
-80 -87 -87 0 -3 11 -21 25 -40 l25 -34 93 3 c50 2 111 4 134 5 49 1 60 17 68
104 3 28 16 76 29 105 77 166 107 254 120 347 3 19 14 64 25 100 10 36 35 117
54 180 31 102 52 183 104 420 8 36 17 74 19 85 3 11 8 38 12 60 l8 40 21 -65
c12 -36 49 -153 83 -260 33 -107 71 -222 83 -255 12 -33 22 -64 24 -70 1 -5
36 -102 77 -214 42 -112 75 -205 74 -206 -46 -29 -168 -118 -177 -129 -11 -13
-9 -21 9 -46 12 -16 30 -35 40 -40 10 -5 94 -10 187 -10 92 -1 177 -1 188 -2
11 0 32 5 48 11 27 10 27 12 21 68 -3 34 -21 90 -44 140 -21 46 -37 83 -35 83
2 0 0 14 -5 30 -5 17 -12 53 -15 82 -4 28 -9 60 -11 72 -2 12 -6 39 -9 61 -3
22 -7 51 -10 65 -3 14 -8 41 -11 60 -6 33 -57 201 -153 501 -36 113 -40 140
-46 262 -3 74 -8 153 -11 174 -3 21 -7 51 -9 67 -6 38 -37 71 -103 108 -48 28
-53 33 -47 57 4 14 11 49 15 76 5 28 13 69 18 92 11 48 149 261 252 390 86
108 138 205 154 290 8 46 12 157 11 338 -1 347 9 322 -175 423 -74 40 -166 90
-203 109 -37 20 -73 41 -80 47 -31 30 -222 179 -277 216 -34 23 -82 51 -106
62 -55 24 -210 54 -324 63 -47 4 -88 9 -91 11 -3 1 -28 6 -55 10 -27 3 -58 8
-69 10 -41 8 -73 14 -111 19 -56 8 -85 13 -120 19 -49 9 -266 19 -459 20 -145
2 -191 -1 -238 -15 -49 -15 -90 -17 -260 -14 -195 4 -214 5 -247 18 -50 19
-89 28 -210 48 -60 9 -412 6 -468 -5 -27 -6 -171 -17 -260 -20 -34 -2 -101 3
-147 10 -80 12 -90 16 -160 68 -40 31 -80 62 -87 69 -7 7 -33 28 -58 47 -85
66 -95 75 -159 140 -89 90 -191 211 -191 225 0 24 46 57 122 88 108 45 145 83
196 198 l42 95 -4 131 c-5 145 -14 171 -68 194 -27 11 -36 10 -74 -11 -24 -12
-44 -27 -44 -31 0 -5 -6 -9 -12 -9 -7 0 28 40 78 90 115 112 182 220 234 376
41 121 55 182 65 279 9 82 15 121 29 185 19 82 16 368 -4 380 -12 8 -17 -2
-27 -58 -13 -79 -11 -67 -63 -307 -23 -104 -43 -216 -44 -247 -2 -35 -17 -92
-40 -150 -50 -128 -49 -127 -83 -105 -15 10 -35 21 -44 23 -16 5 -35 76 -25
92 7 12 18 113 21 187 3 65 12 185 19 229 3 23 -18 161 -39 251 -24 102 -155
339 -177 317 -15 -15 32 -185 63 -227 13 -19 43 -210 43 -280 -1 -38 -4 -104
-8 -145 -4 -41 -9 -102 -11 -135 -7 -79 -14 -124 -27 -157 -43 -115 -313 -7
-637 256 -57 46 -110 82 -117 79 -9 -3 -10 -13 -2 -40 7 -26 44 -69 136 -159
134 -131 251 -218 342 -254 30 -12 66 -27 80 -33 14 -5 31 -11 38 -13 7 -1 75
-33 149 -70 l136 -68 -80 -75 c-126 -118 -164 -152 -223 -201 -30 -25 -63 -52
-73 -62 -13 -11 -35 -16 -67 -15 l-49 2 -29 -55 c-16 -30 -48 -81 -72 -113
-34 -45 -47 -56 -63 -51 -21 7 -273 9 -296 3 -19 -5 -29 35 -25 101 6 94 12
123 43 205 22 56 31 97 31 138 0 51 -2 58 -14 47 -8 -6 -20 -28 -27 -48 -13
-40 -50 -102 -61 -102 -3 0 -9 14 -13 30 -4 17 -21 52 -39 78 -18 26 -62 91
-99 145 -66 95 -68 99 -71 170 -3 48 2 96 14 143 19 72 26 108 36 179 3 22 8
51 10 65 2 14 7 43 10 65 3 22 20 87 39 145 18 58 36 123 40 145 3 22 15 64
26 94 11 29 18 55 17 57 -2 1 -22 -20 -45 -47 -31 -37 -45 -64 -53 -107 -7
-31 -28 -91 -47 -132 -36 -78 -113 -302 -113 -330 0 -33 -52 -213 -65 -226
-20 -20 -28 -18 -114 26 -124 64 -123 63 -126 237 -2 81 -6 184 -10 228 -4 44
-8 134 -9 200 -2 132 11 192 73 328 17 38 31 75 31 83 0 19 -21 17 -41 -4z
m844 -2321 c34 -28 11 -89 -41 -105 -27 -9 -78 9 -86 29 -4 11 -13 12 -38 4
-40 -11 -38 -11 -38 -1 0 11 91 79 115 85 33 8 69 4 88 -12z m1221 -3368 c19
-79 23 -122 31 -316 4 -78 8 -158 10 -177 2 -19 6 -89 10 -155 7 -117 2 -168
-31 -318 -8 -40 -39 -35 -60 9 -9 19 -41 56 -70 81 -38 33 -51 51 -48 66 2 11
6 81 9 156 7 156 12 235 19 271 2 14 7 43 10 65 3 22 7 49 9 60 3 11 8 42 11
68 4 27 9 59 12 70 2 12 7 42 10 66 5 37 45 121 58 121 2 0 11 -30 20 -67z"/>
</g>
</svg>
