<?xml version="1.0" standalone="no"?>
<!DOCTYPE svg PUBLIC "-//W3C//DTD SVG 20010904//EN"
 "http://www.w3.org/TR/2001/REC-SVG-20010904/DTD/svg10.dtd">
<svg version="1.0" xmlns="http://www.w3.org/2000/svg"
 width="512.000000pt" height="512.000000pt" viewBox="0 0 512.000000 512.000000"
 preserveAspectRatio="xMidYMid meet">
<metadata>
Created by potrace 1.14, written by Peter Selinger 2001-2017
</metadata>
<g transform="translate(0.000000,512.000000) scale(0.100000,-0.100000)"
fill="#000000" stroke="none">
<path d="M851 4651 c-19 -19 -20 -49 -20 -1585 -1 -1822 -19 -1605 132 -1607
50 0 110 -2 132 -4 22 -2 83 -6 135 -9 52 -4 109 -9 125 -11 17 -2 56 -7 89
-10 32 -4 68 -8 80 -10 11 -2 43 -6 69 -10 27 -4 59 -8 70 -11 12 -2 38 -7 57
-10 108 -17 326 -73 468 -120 90 -30 169 -54 176 -54 42 0 41 -36 42 1436 1
1272 -1 1405 -15 1418 -9 8 -182 81 -386 161 -203 81 -383 153 -400 160 -60
26 -134 55 -325 130 -107 42 -204 80 -215 85 -40 19 -176 70 -185 70 -6 0 -19
-9 -29 -19z"/>
<path d="M3610 4424 c-866 -346 -863 -345 -881 -360 -15 -13 -16 -140 -15
-1418 1 -1173 3 -1406 15 -1419 14 -18 61 -23 77 -8 13 12 242 85 359 115 94
23 271 58 360 70 22 4 51 8 65 11 26 4 113 14 185 20 22 2 69 6 105 10 87 8
187 13 288 14 137 2 121 -208 121 1606 1 1547 0 1566 -19 1585 -11 11 -26 20
-32 19 -7 0 -290 -110 -628 -245z"/>
<path d="M13 4165 c-10 -11 -13 -356 -13 -1653 0 -1605 0 -1639 19 -1656 16
-14 31 -17 78 -12 32 3 94 8 138 11 44 2 122 7 174 11 193 12 613 6 771 -11
19 -2 64 -7 100 -10 36 -3 90 -10 120 -15 30 -5 72 -11 92 -14 209 -31 453
-108 648 -206 245 -123 375 -167 455 -154 65 10 220 72 376 150 264 132 509
199 877 239 329 36 764 36 1177 0 33 -3 67 -1 75 4 13 9 15 206 18 1655 2
1488 1 1646 -14 1660 -8 9 -23 16 -32 16 -10 0 -139 -36 -287 -80 -236 -70
-280 -87 -286 -110 -1 -3 -2 -613 -3 -1357 -1 -1049 -4 -1355 -13 -1364 -9 -9
-64 -13 -177 -15 -158 -2 -320 -9 -423 -19 -89 -8 -178 -16 -203 -20 -14 -1
-50 -6 -80 -10 -175 -21 -463 -89 -626 -146 -134 -47 -203 -78 -324 -146 -41
-24 -81 -43 -88 -43 -8 0 -57 24 -110 53 -53 30 -140 71 -192 91 -52 21 -104
42 -115 46 -54 23 -251 77 -335 94 -14 2 -50 10 -80 16 -30 6 -73 13 -95 16
-22 3 -47 7 -55 9 -8 3 -37 7 -65 10 -27 3 -61 8 -75 10 -14 3 -54 7 -90 10
-36 3 -85 8 -110 10 -127 12 -253 17 -417 19 -101 1 -186 6 -190 10 -5 4 -8
619 -9 1366 0 1283 -1 1360 -18 1378 -9 11 -27 22 -39 25 -41 10 -91 25 -296
86 -112 34 -213 61 -225 61 -12 -1 -27 -7 -33 -15z"/>
</g>
</svg>
