<?xml version="1.0" standalone="no"?>
<!DOCTYPE svg PUBLIC "-//W3C//DTD SVG 20010904//EN"
 "http://www.w3.org/TR/2001/REC-SVG-20010904/DTD/svg10.dtd">
<svg version="1.0" xmlns="http://www.w3.org/2000/svg"
 width="1582.000000pt" height="1582.000000pt" viewBox="0 0 1582.000000 1582.000000"
 preserveAspectRatio="xMidYMid meet">
<metadata>
Created by potrace 1.14, written by Peter Selinger 2001-2017
</metadata>
<g transform="translate(0.000000,1582.000000) scale(0.100000,-0.100000)"
fill="#000000" stroke="none">
<path d="M6668 14655 c-2 -2 -52 -5 -113 -8 -92 -5 -219 -23 -368 -52 -69 -14
-273 -87 -368 -133 -98 -47 -254 -144 -309 -191 -119 -102 -154 -135 -215
-204 -198 -221 -358 -542 -429 -862 -14 -60 -28 -135 -31 -165 -4 -30 -11 -82
-15 -115 -8 -65 -5 -409 4 -465 4 -19 8 -54 11 -78 7 -68 35 -210 60 -307 85
-326 228 -639 423 -925 63 -92 250 -350 262 -360 3 -3 24 -30 45 -60 37 -51
261 -329 274 -340 3 -3 35 -39 71 -80 36 -41 70 -80 75 -86 6 -6 46 -51 90
-99 161 -178 303 -323 985 -1005 383 -382 865 -868 1072 -1080 206 -212 466
-477 576 -589 116 -119 198 -210 195 -218 -4 -9 0 -11 11 -7 9 3 14 9 12 13
-3 4 74 88 171 186 698 716 1014 1037 1648 1670 762 763 873 877 1091 1121 39
43 86 97 105 119 19 22 36 42 39 45 43 43 269 328 380 480 47 63 88 116 92
118 5 2 8 10 8 17 0 7 4 15 9 17 11 4 167 233 210 308 75 131 162 314 208 435
9 22 19 49 23 60 49 125 109 356 125 480 4 28 9 52 10 56 18 29 28 534 12 627
-4 23 -10 61 -13 85 -21 159 -89 382 -167 552 -97 209 -210 371 -366 525 -135
132 -260 222 -426 304 -172 86 -310 132 -495 166 -54 10 -71 12 -195 28 -71 9
-345 8 -430 -2 -136 -16 -308 -47 -415 -76 -162 -43 -356 -120 -527 -210 -169
-89 -277 -161 -443 -299 -100 -82 -123 -101 -297 -237 -156 -121 -280 -239
-341 -322 l-29 -40 -44 60 c-53 73 -176 190 -311 295 -133 104 -276 218 -368
294 -116 96 -272 196 -435 281 -98 51 -331 143 -415 164 -8 2 -58 15 -110 29
-85 22 -165 39 -255 51 -16 2 -43 7 -60 9 -16 3 -77 8 -135 11 -58 3 -120 7
-137 8 -18 2 -34 2 -35 1z m2376 -1341 c3 -8 2 -12 -4 -9 -6 3 -10 10 -10 16
0 14 7 11 14 -7z m-134 -4 c0 -5 -5 -10 -11 -10 -5 0 -7 5 -4 10 3 6 8 10 11
10 2 0 4 -4 4 -10z"/>
<path d="M15355 8549 c-16 -5 -43 -11 -58 -14 -15 -3 -36 -9 -45 -13 -122 -58
-219 -113 -336 -191 -245 -163 -395 -288 -695 -580 -299 -290 -383 -370 -479
-452 -59 -50 -119 -102 -133 -114 -14 -12 -153 -125 -310 -250 -507 -408 -625
-520 -712 -678 -33 -59 -34 -77 -4 -77 12 0 63 -12 112 -26 100 -29 214 -41
241 -26 9 5 58 50 108 99 89 88 132 127 232 208 27 22 123 113 214 202 91 89
175 170 186 180 12 10 70 64 130 119 60 56 152 139 204 184 52 46 97 86 100
89 11 14 254 214 365 302 293 232 452 329 715 436 187 75 354 99 458 64 l53
-18 13 32 c8 18 17 52 21 76 4 24 9 53 11 64 3 11 4 52 4 90 0 191 -98 295
-284 300 -45 1 -94 -2 -111 -6z"/>
<path d="M14688 8374 c-2 -1 -75 -4 -163 -7 -214 -7 -272 -26 -445 -146 -138
-95 -190 -139 -325 -279 -502 -516 -774 -778 -1075 -1033 -180 -153 -371 -354
-455 -479 -38 -58 -95 -131 -127 -162 -31 -32 -53 -59 -50 -61 11 -6 111 -11
207 -11 136 1 167 22 348 234 59 70 80 89 197 172 90 64 190 153 374 329 61
58 147 139 190 180 44 41 116 108 160 150 45 42 93 87 107 100 41 37 266 248
323 303 28 27 146 128 261 224 266 223 329 281 429 397 76 89 78 92 61 92 -8
0 -16 -1 -17 -3z"/>
<path d="M13765 8116 c-11 -7 -97 -46 -191 -86 -118 -49 -186 -84 -220 -112
-27 -23 -139 -132 -249 -243 -110 -111 -247 -240 -305 -286 -58 -46 -107 -86
-110 -89 -3 -3 -18 -16 -35 -29 -16 -12 -59 -50 -95 -84 -99 -94 -171 -154
-325 -272 -353 -271 -451 -372 -541 -555 -17 -36 -43 -76 -58 -89 -14 -14 -26
-28 -26 -33 0 -5 60 -7 133 -6 126 3 137 5 192 33 62 31 88 60 200 216 73 102
275 307 450 459 266 229 358 316 719 676 381 380 507 514 483 514 -1 0 -11 -6
-22 -14z"/>
<path d="M15597 7903 c-1 0 -27 -4 -57 -8 -194 -23 -395 -106 -645 -265 -426
-272 -889 -622 -1185 -896 -19 -18 -53 -49 -75 -69 -156 -144 -310 -305 -493
-517 l-101 -116 47 -20 c61 -26 184 -108 244 -161 90 -80 188 -233 202 -316 3
-16 8 -41 11 -55 7 -34 7 -198 0 -235 -13 -72 -29 -132 -51 -188 -81 -205
-287 -412 -524 -524 -132 -62 -345 -122 -490 -138 -30 -3 -62 -8 -70 -10 -15
-4 -93 -10 -240 -20 -41 -2 -163 -7 -270 -10 -206 -6 -382 -14 -440 -20 -211
-24 -1581 -23 -2135 0 -55 2 -237 7 -405 10 -624 11 -922 23 -938 39 -5 6 51
56 63 57 5 0 17 2 25 3 8 2 49 6 90 10 41 4 89 9 105 11 45 6 257 15 450 20
94 2 301 7 460 11 384 9 926 9 1320 -1 759 -18 1371 -9 1635 25 41 5 93 12
115 15 191 22 574 131 731 206 136 66 238 161 308 290 151 276 101 538 -146
763 -159 146 -405 266 -638 312 -14 2 -36 7 -50 9 -82 17 -99 20 -185 30 -33
3 -70 8 -83 10 -157 25 -757 25 -947 0 -32 -4 -123 -14 -190 -21 -22 -2 -56
-6 -75 -9 -19 -2 -55 -7 -80 -10 -25 -4 -56 -8 -70 -10 -14 -2 -77 -11 -140
-20 -63 -9 -126 -18 -140 -20 -14 -3 -50 -7 -80 -10 -30 -4 -62 -8 -70 -10 -8
-2 -46 -7 -85 -11 -38 -3 -79 -8 -90 -10 -21 -4 -112 -12 -222 -19 -90 -6
-390 -6 -478 0 -273 19 -418 36 -645 76 -367 65 -704 188 -945 344 -239 155
-598 311 -1085 471 -157 51 -416 136 -576 188 -342 112 -599 179 -774 202 -19
3 -46 7 -60 9 -14 3 -51 8 -82 11 -32 3 -68 7 -80 9 -124 24 -755 25 -888 1
-14 -3 -47 -7 -75 -11 -366 -44 -840 -170 -1605 -425 -397 -132 -548 -208
-824 -415 -131 -98 -330 -239 -488 -347 -138 -94 -203 -154 -298 -278 -41 -52
-85 -107 -98 -122 -29 -32 -30 -29 23 -56 57 -29 139 -102 190 -170 43 -58
165 -255 165 -270 1 -4 27 -45 60 -92 174 -251 325 -484 475 -735 152 -254
281 -462 295 -475 3 -3 10 -12 15 -21 25 -41 174 -249 185 -259 3 -3 25 -32
50 -65 25 -33 47 -62 50 -65 3 -3 27 -34 55 -70 27 -36 52 -67 55 -70 3 -3 41
-50 84 -105 44 -55 92 -113 107 -130 15 -16 56 -64 90 -105 35 -41 66 -77 69
-80 3 -3 45 -51 94 -108 77 -90 87 -104 75 -119 -13 -14 -9 -15 41 -10 58 6
99 17 165 47 22 9 51 21 65 25 14 4 30 11 35 15 20 14 198 65 335 95 8 2 51
12 95 24 44 11 91 22 105 25 14 3 72 16 130 30 58 13 125 27 150 31 24 4 47 8
50 10 3 1 32 6 65 10 33 4 92 10 130 15 73 9 411 6 480 -5 22 -3 69 -12 105
-20 61 -13 344 -62 400 -70 14 -2 36 -6 50 -9 31 -7 74 -15 125 -22 118 -17
363 -82 730 -194 94 -29 177 -53 185 -55 55 -11 328 -83 445 -116 176 -51 275
-86 445 -162 195 -86 295 -123 775 -282 451 -151 489 -162 650 -194 237 -46
557 -53 725 -15 14 3 36 8 50 11 192 35 511 209 840 458 52 40 105 78 118 84
12 6 22 16 22 21 0 14 103 110 198 183 97 75 543 394 822 587 8 6 49 35 91 64
125 88 467 317 569 380 172 107 316 218 535 410 44 39 89 80 100 91 11 11 47
42 80 70 33 27 62 52 65 55 3 3 21 17 40 30 19 13 40 29 47 35 6 5 35 27 65
47 29 21 125 87 213 149 254 176 456 350 550 473 17 22 46 60 66 86 20 25 89
123 154 216 107 154 232 317 282 370 11 11 26 31 33 45 59 111 254 327 489
540 243 219 328 319 556 654 37 55 75 110 84 121 9 12 23 32 31 44 8 12 36 50
62 83 l48 62 0 312 0 312 -55 6 c-50 7 -164 12 -168 8z"/>
<path d="M183 5819 c-43 -8 -109 -38 -155 -71 l-28 -19 0 -254 0 -254 99 -203
c55 -112 134 -282 175 -378 42 -96 81 -184 86 -195 5 -11 43 -99 84 -195 182
-430 348 -775 507 -1053 23 -40 50 -88 61 -107 117 -204 183 -311 311 -505
251 -378 373 -529 733 -901 81 -84 210 -225 250 -274 16 -19 31 -37 35 -40 12
-11 106 -137 128 -174 l24 -38 18 23 c11 13 28 42 40 64 26 49 81 127 173 243
117 147 236 310 236 321 0 6 5 11 10 11 6 0 10 4 10 9 0 6 13 29 29 53 42 62
124 212 203 371 86 174 96 147 -127 336 -179 152 -256 233 -420 446 -181 233
-403 576 -567 874 -138 251 -180 324 -236 414 -129 209 -391 575 -549 767 -6
8 -45 56 -85 106 -92 115 -152 188 -158 194 -3 3 -43 52 -90 110 -120 149
-138 168 -200 209 -85 58 -186 89 -345 107 -93 10 -206 12 -252 3z"/>
</g>
</svg>
